<svg xmlns="http://www.w3.org/2000/svg" width="720" height="405" viewBox="0 0 960 540">
<defs>
    <style>
      .cls-1 {
        fill-rule: evenodd;
      }
    </style>
  </defs>
  <path id="MYXRCRS.DE_MYXRCRS.CN" data-name="MYXRCRS.DE ↓ MYXRCRS.CN" class="cls-1" d="M79.88,191h20V159.125c0-9.25-1.75-23.125-2.875-32.25h0.5l7.5,22.25,12.625,34h12.25l12.5-34,7.75-22.25h0.5c-1.125,9.125-2.875,23-2.875,32.25V191H168.13V98H143.88l-14.25,40.125c-1.75,5.375-3.25,11.25-5.125,17H123.88c-1.75-5.75-3.25-11.625-5.125-17L104.005,98H79.88v93Zm125.75,0h22.25V158.125L256.005,98H232.63l-7.75,20.625c-2.625,7-5.125,13.5-7.75,20.75h-0.5c-2.625-7.25-5-13.75-7.5-20.75L201.38,98H177.63l28,60.125V191Zm50.623,0h23.875l8-18.125c2.125-4.875,4.125-9.75,6.375-15.5H295c2.5,5.75,4.625,10.625,6.875,15.5L310.5,191h24.875l-25.625-46.875,24-46.125H310.128l-6.75,16.625c-1.875,4.375-3.875,9.25-6,15.25h-0.5c-2.625-6-4.75-10.875-6.75-15.25L282.628,98H257.753l24.125,45.125ZM370,115.625h10c10.625,0,16.25,2.875,16.25,11.625s-5.625,13.375-16.25,13.375H370v-25ZM422.878,191l-20.75-36.875c9.625-4.5,16-13.25,16-26.875,0-22.5-16.5-29.25-36.375-29.25H347.628v93H370V158.25h10.75L397.878,191h25Zm52.624,1.75A38.7,38.7,0,0,0,505.877,179l-11.75-14c-4.375,4.75-10.375,8.5-17.75,8.5-13.125,0-21.625-10.75-21.625-29.25,0-18.125,9.875-28.875,21.875-28.875,6.625,0,11.5,3,16.125,7.25l11.75-14.25a39.617,39.617,0,0,0-28.25-12.125c-23.625,0-44.375,17.75-44.375,48.75C431.877,176.5,451.877,192.75,475.5,192.75Zm66.374-77.125h10c10.625,0,16.25,2.875,16.25,11.625s-5.625,13.375-16.25,13.375h-10v-25ZM594.751,191L574,154.125c9.625-4.5,16-13.25,16-26.875C590,104.75,573.5,98,553.626,98H519.5v93h22.375V158.25h10.75L569.751,191h25Zm42.124,1.75c22.5,0,35.5-13.625,35.5-29.125,0-13.125-6.875-20.875-18.375-25.5L642.375,133.5c-8.25-3.25-14.125-5.25-14.125-10.375,0-5,4.25-7.75,11.125-7.75,7.25,0,13,2.5,19.125,7.125l11.125-14a43.279,43.279,0,0,0-30.25-12.25c-19.75,0-33.75,12.5-33.75,28.125,0,13.5,9.125,21.625,18.875,25.5l11.875,5c8,3.375,13.125,5.125,13.125,10.5,0,5-3.875,8.125-12.125,8.125-7.375,0-16-3.875-22.625-9.5l-12.625,15.375A52.047,52.047,0,0,0,636.875,192.75Zm62.249,0c7.625,0,13.25-6.125,13.25-13.875,0-7.625-5.625-13.75-13.25-13.75-7.75,0-13.25,6.125-13.25,13.75C685.874,186.625,691.374,192.75,699.124,192.75ZM731.748,191h28c27.125,0,45.875-14.625,45.875-47S786.873,98,758.5,98h-26.75v93Zm22.375-18V115.75h3c15,0,25.625,6.125,25.625,28.25s-10.625,29-25.625,29h-3Zm68.749,18h60.375V172.25h-38V152.5h31.125V133.75H845.247V116.5h36.625V98h-59v93ZM487.5,211h-15v83.75c-3.375-4.625-9.625-10.375-15.375-14.375l-7.25,13.375A150.154,150.154,0,0,1,480,326.625a150.154,150.154,0,0,1,30.125-32.875l-7.25-13.375c-5.75,4-12,9.75-15.375,14.375V211ZM75.379,441h20V409.125c0-9.25-1.75-23.125-2.875-32.25H93l7.5,22.25,12.625,34h12.25l12.5-34,7.75-22.25h0.5c-1.125,9.125-2.875,23-2.875,32.25V441h20.375V348h-24.25l-14.25,40.125c-1.75,5.375-3.25,11.25-5.125,17h-0.625c-1.75-5.75-3.25-11.625-5.125-17L99.5,348H75.379v93Zm125.75,0h22.25V408.125L251.5,348H228.129l-7.75,20.625c-2.625,7-5.125,13.5-7.75,20.75h-0.5c-2.625-7.25-5-13.75-7.5-20.75L196.879,348h-23.75l28,60.125V441Zm50.623,0h23.875l8-18.125c2.125-4.875,4.125-9.75,6.375-15.5h0.5c2.5,5.75,4.625,10.625,6.875,15.5L306,441h24.875l-25.625-46.875,24-46.125H305.627l-6.75,16.625c-1.875,4.375-3.875,9.25-6,15.25h-0.5c-2.625-6-4.75-10.875-6.75-15.25L278.127,348H253.252l24.125,45.125ZM365.5,365.625h10c10.625,0,16.25,2.875,16.25,11.625s-5.625,13.375-16.25,13.375h-10v-25ZM418.377,441l-20.75-36.875c9.625-4.5,16-13.25,16-26.875,0-22.5-16.5-29.25-36.375-29.25H343.127v93H365.5V408.25h10.75L393.377,441h25ZM471,442.75A38.7,38.7,0,0,0,501.376,429l-11.75-14c-4.375,4.75-10.375,8.5-17.75,8.5-13.125,0-21.625-10.75-21.625-29.25,0-18.125,9.875-28.875,21.875-28.875,6.625,0,11.5,3,16.125,7.25L500,358.375a39.617,39.617,0,0,0-28.25-12.125c-23.625,0-44.375,17.75-44.375,48.75C427.376,426.5,447.376,442.75,471,442.75Zm66.374-77.125h10c10.625,0,16.25,2.875,16.25,11.625s-5.625,13.375-16.25,13.375h-10v-25ZM590.25,441L569.5,404.125c9.625-4.5,16-13.25,16-26.875,0-22.5-16.5-29.25-36.375-29.25H515v93h22.375V408.25h10.75L565.25,441h25Zm42.124,1.75c22.5,0,35.5-13.625,35.5-29.125,0-13.125-6.875-20.875-18.375-25.5L637.874,383.5c-8.25-3.25-14.125-5.25-14.125-10.375,0-5,4.25-7.75,11.125-7.75,7.25,0,13,2.5,19.125,7.125l11.125-14a43.279,43.279,0,0,0-30.25-12.25c-19.75,0-33.75,12.5-33.75,28.125,0,13.5,9.125,21.625,18.875,25.5l11.875,5c8,3.375,13.125,5.125,13.125,10.5,0,5-3.875,8.125-12.125,8.125-7.375,0-16-3.875-22.625-9.5l-12.625,15.375A52.047,52.047,0,0,0,632.374,442.75Zm62.249,0c7.625,0,13.25-6.125,13.25-13.875,0-7.625-5.625-13.75-13.25-13.75-7.75,0-13.25,6.125-13.25,13.75C681.373,436.625,686.873,442.75,694.623,442.75Zm72,0A38.7,38.7,0,0,0,797,429l-11.75-14c-4.375,4.75-10.375,8.5-17.75,8.5-13.125,0-21.625-10.75-21.625-29.25,0-18.125,9.875-28.875,21.875-28.875,6.625,0,11.5,3,16.125,7.25l11.75-14.25a39.617,39.617,0,0,0-28.25-12.125C743.748,346.25,723,364,723,395,723,426.5,743,442.75,766.623,442.75Zm44-1.75h21.25V410.125c0-11.25-1.875-24-2.875-34.375h0.625l9.125,20.375,23,44.875H884.5V348h-21.25v30.75c0,11.125,1.75,24.5,3,34.375h-0.625L856.5,392.5,833.372,348h-22.75v93Z"/>
</svg>
